<?xml version="1.0" encoding="utf-8"?>
<!-- Generator: Adobe Illustrator 16.0.0, SVG Export Plug-In . SVG Version: 6.00 Build 0)  -->
<!DOCTYPE svg PUBLIC "-//W3C//DTD SVG 1.1//EN" "http://www.w3.org/Graphics/SVG/1.1/DTD/svg11.dtd">
<svg version="1.1" id="Layer_1" xmlns="http://www.w3.org/2000/svg" xmlns:xlink="http://www.w3.org/1999/xlink" x="0px" y="0px"
	 width="100%" viewBox="0 0 512 512" enable-background="new 0 0 512 512" xml:space="preserve">
<path fill="#1A1C31" opacity="1.000000" stroke="none" 
	d="
M1.000002,476.000000 
	C1.000000,330.309265 1.000000,184.618515 1.353301,38.409008 
	C2.293049,36.952461 3.063614,36.082584 3.438336,35.066700 
	C9.085188,19.757891 19.510283,9.254899 34.801987,3.519928 
	C36.012722,3.065857 36.940647,1.857704 38.000000,1.000000 
	C183.690750,1.000000 329.381500,1.000000 475.590881,1.353342 
	C477.047302,2.293079 477.917206,3.063537 478.933105,3.438251 
	C494.241882,9.085050 504.744965,19.510027 510.479919,34.801773 
	C510.934021,36.012592 512.142273,36.940559 513.000000,37.999996 
	C513.000000,183.690750 513.000000,329.381500 512.646667,475.590881 
	C511.706909,477.047302 510.936432,477.917236 510.561737,478.933105 
	C504.915039,494.242035 494.489990,504.745117 479.198212,510.480011 
	C477.987427,510.934113 477.059448,512.142273 476.000000,513.000000 
	C330.309265,513.000000 184.618515,513.000000 38.409004,512.646729 
	C36.952454,511.706970 36.082569,510.936401 35.066685,510.561676 
	C19.757879,504.914825 9.254863,494.489777 3.519947,479.197998 
	C3.065880,477.987274 1.857710,477.059357 1.000002,476.000000 
M274.972565,295.562195 
	C279.678589,301.603027 284.601349,307.489136 289.045898,313.716553 
	C298.577057,327.070984 318.784973,327.949005 329.413208,323.918671 
	C331.295776,323.204803 332.445801,320.559082 333.934082,318.805450 
	C332.105377,318.085175 330.295837,316.804962 328.444641,316.741547 
	C320.428467,316.467041 313.181458,314.923157 306.920044,309.159363 
	C290.941193,294.450470 278.690460,276.892487 267.197083,258.701508 
	C266.975433,258.350739 267.120392,257.768341 267.127197,257.892456 
	C272.247681,253.795319 277.260895,250.230286 281.757935,246.102875 
	C295.830505,233.186981 296.587189,200.405106 267.698029,193.132431 
	C261.775879,191.641541 255.558426,190.717453 249.463089,190.640289 
	C234.313614,190.448517 219.156021,190.893921 204.001816,191.093414 
	C203.170425,191.104340 202.255569,191.004669 201.528198,191.310242 
	C200.265137,191.840881 199.118301,192.648148 197.922714,193.339386 
	C198.982742,194.457809 199.859116,195.932709 201.152145,196.598862 
	C202.571442,197.330063 204.372574,197.327698 206.011032,197.624588 
	C213.833038,199.042023 215.911758,201.255859 216.064743,209.241562 
	C216.253036,219.070129 216.177994,228.904068 216.183884,238.735718 
	C216.196472,259.733521 216.209702,280.731354 216.177460,301.729095 
	C216.164215,310.359833 213.614624,313.675812 205.321716,316.065582 
	C203.404236,316.618134 201.384689,316.871185 199.531952,317.576721 
	C197.993713,318.162506 196.631607,319.210907 195.191483,320.054352 
	C195.262146,320.629669 195.332794,321.205017 195.403458,321.780365 
	C197.858704,322.107971 200.312393,322.704376 202.769470,322.718811 
	C216.710693,322.800568 230.654388,322.850372 244.592957,322.634308 
	C247.106796,322.595367 249.600677,321.268555 252.103760,320.536316 
	C249.955704,319.322876 247.942093,317.628571 245.635101,316.983521 
	C237.781540,314.787537 233.343216,311.040710 232.974319,303.521637 
	C232.338242,290.557068 232.543045,277.549347 232.491486,264.559387 
	C232.480225,261.721527 233.930969,260.471832 237.005814,260.837952 
	C247.198746,262.051544 255.912903,265.377136 261.428680,274.945068 
	C265.409027,281.849579 270.158325,288.310822 274.972565,295.562195 
M455.804260,325.911255 
	C461.222107,325.296295 466.727966,325.065063 472.008972,323.853668 
	C473.803741,323.441956 475.031708,320.559387 476.518677,318.805908 
	C474.689819,318.087494 472.851044,316.729004 471.033722,316.757141 
	C461.089691,316.911163 452.877136,313.565826 446.318970,305.966309 
	C440.561188,299.294220 434.130676,293.163727 428.763763,286.203003 
	C421.785889,277.152954 415.565948,267.518463 409.183380,258.369965 
	C414.806458,253.820694 420.096527,250.087631 424.744141,245.677460 
	C438.269867,232.842712 438.486389,201.272293 412.085724,193.689224 
	C407.161987,192.275009 402.006439,190.946671 396.940613,190.879440 
	C379.794708,190.651886 362.641022,191.006790 345.490417,191.149872 
	C344.826569,191.155411 344.068329,191.089539 343.520355,191.375519 
	C342.423798,191.947800 341.442566,192.741089 340.413727,193.443115 
	C341.239410,194.398895 341.919434,195.575424 342.934021,196.244980 
	C343.848785,196.848709 345.117279,196.963608 346.251495,197.180420 
	C357.469391,199.324692 358.895447,200.959366 358.906403,212.310593 
	C358.935120,242.140442 358.920654,271.970337 358.904175,301.800201 
	C358.903351,303.293396 358.884888,304.818848 358.596252,306.274078 
	C357.177887,313.425201 351.415161,315.169586 345.481445,316.794403 
	C342.829865,317.520447 340.287415,318.644958 337.695435,319.588654 
	C337.842865,320.298492 337.990265,321.008362 338.137695,321.718201 
	C357.034821,321.718201 375.931915,321.718201 394.829041,321.718201 
	C394.967957,321.006104 395.106873,320.294006 395.245789,319.581909 
	C392.793640,318.664062 390.395508,317.546753 387.879333,316.865356 
	C379.938934,314.715118 375.548004,310.342651 375.244324,302.188690 
	C374.779480,289.707306 375.058716,277.197815 375.049072,264.700256 
	C375.046844,261.823212 376.340485,260.476074 379.420319,260.820282 
	C389.614563,261.959595 398.079773,265.463074 404.010162,274.722351 
	C411.626038,286.613251 420.242554,297.859100 428.272797,309.489990 
	C434.774384,318.906891 443.163422,325.038422 455.804260,325.911255 
M65.971481,305.531189 
	C86.722382,324.944550 111.290451,329.309692 137.353851,320.632812 
	C177.521515,307.260406 188.386276,262.459595 177.514633,231.793289 
	C166.316727,200.206604 132.252670,182.723053 98.185616,190.698044 
	C73.502007,196.476410 57.444321,212.023972 50.312424,236.009247 
	C42.731731,261.503815 46.659542,285.042755 65.971481,305.531189 
z"/>
<path fill="#000000" opacity="1.000000" stroke="none" 
	d="
M37.531342,1.000000 
	C36.940647,1.857704 36.012722,3.065857 34.801987,3.519928 
	C19.510283,9.254899 9.085188,19.757891 3.438336,35.066700 
	C3.063614,36.082584 2.293049,36.952461 1.353301,37.945122 
	C1.000000,25.740049 1.000000,13.480098 1.000000,1.000000 
	C13.020000,1.000000 25.041342,1.000000 37.531342,1.000000 
z"/>
<path fill="#000000" opacity="1.000000" stroke="none" 
	d="
M513.000000,37.531338 
	C512.142273,36.940559 510.934021,36.012592 510.479919,34.801773 
	C504.744965,19.510027 494.241882,9.085050 478.933105,3.438251 
	C477.917206,3.063537 477.047302,2.293079 476.054749,1.353342 
	C488.259949,1.000000 500.519897,1.000000 513.000000,1.000000 
	C513.000000,13.020000 513.000000,25.041342 513.000000,37.531338 
z"/>
<path fill="#000000" opacity="1.000000" stroke="none" 
	d="
M1.000002,476.468658 
	C1.857710,477.059357 3.065880,477.987274 3.519947,479.197998 
	C9.254863,494.489777 19.757879,504.914825 35.066685,510.561676 
	C36.082569,510.936401 36.952454,511.706970 37.945122,512.646729 
	C25.740049,513.000000 13.480098,513.000000 1.000000,513.000000 
	C1.000000,500.980011 1.000000,488.958649 1.000002,476.468658 
z"/>
<path fill="#000000" opacity="1.000000" stroke="none" 
	d="
M476.468689,513.000000 
	C477.059448,512.142273 477.987427,510.934113 479.198212,510.480011 
	C494.489990,504.745117 504.915039,494.242035 510.561737,478.933105 
	C510.936432,477.917236 511.706909,477.047302 512.646667,476.054749 
	C513.000000,488.259949 513.000000,500.519897 513.000000,513.000000 
	C500.980011,513.000000 488.958649,513.000000 476.468689,513.000000 
z"/>
<path fill="#FAFAFA" opacity="1.000000" stroke="none" 
	d="
M274.768616,295.265991 
	C270.158325,288.310822 265.409027,281.849579 261.428680,274.945068 
	C255.912903,265.377136 247.198746,262.051544 237.005814,260.837952 
	C233.930969,260.471832 232.480225,261.721527 232.491486,264.559387 
	C232.543045,277.549347 232.338242,290.557068 232.974319,303.521637 
	C233.343216,311.040710 237.781540,314.787537 245.635101,316.983521 
	C247.942093,317.628571 249.955704,319.322876 252.103760,320.536316 
	C249.600677,321.268555 247.106796,322.595367 244.592957,322.634308 
	C230.654388,322.850372 216.710693,322.800568 202.769470,322.718811 
	C200.312393,322.704376 197.858704,322.107971 195.403458,321.780365 
	C195.332794,321.205017 195.262146,320.629669 195.191483,320.054352 
	C196.631607,319.210907 197.993713,318.162506 199.531952,317.576721 
	C201.384689,316.871185 203.404236,316.618134 205.321716,316.065582 
	C213.614624,313.675812 216.164215,310.359833 216.177460,301.729095 
	C216.209702,280.731354 216.196472,259.733521 216.183884,238.735718 
	C216.177994,228.904068 216.253036,219.070129 216.064743,209.241562 
	C215.911758,201.255859 213.833038,199.042023 206.011032,197.624588 
	C204.372574,197.327698 202.571442,197.330063 201.152145,196.598862 
	C199.859116,195.932709 198.982742,194.457809 197.922729,193.339386 
	C199.118301,192.648148 200.265137,191.840881 201.528198,191.310242 
	C202.255569,191.004669 203.170425,191.104340 204.001816,191.093414 
	C219.156021,190.893921 234.313614,190.448517 249.463089,190.640289 
	C255.558426,190.717453 261.775879,191.641541 267.698029,193.132431 
	C296.587189,200.405106 295.830505,233.186981 281.757935,246.102875 
	C277.260895,250.230286 272.247681,253.795319 267.127197,257.892456 
	C267.120392,257.768341 266.975433,258.350739 267.197083,258.701508 
	C278.690460,276.892487 290.941193,294.450470 306.920044,309.159363 
	C313.181458,314.923157 320.428467,316.467041 328.444641,316.741547 
	C330.295837,316.804962 332.105377,318.085175 333.934082,318.805481 
	C332.445801,320.559082 331.295776,323.204803 329.413208,323.918671 
	C318.784973,327.949005 298.577057,327.070984 289.045898,313.716553 
	C284.601349,307.489136 279.678589,301.603027 274.768616,295.265991 
M257.060089,198.060730 
	C252.776382,197.557053 248.501190,196.737671 244.207031,196.622101 
	C237.399582,196.438904 234.560745,198.242645 234.125488,204.910828 
	C233.140503,220.000900 232.859543,235.146912 232.784515,250.272614 
	C232.775970,251.995132 235.651825,254.794891 237.629608,255.271408 
	C244.431320,256.910126 251.172211,255.851929 257.404938,252.517349 
	C269.441742,246.077530 274.912750,232.947556 272.418610,217.945145 
	C270.887207,208.733765 267.075165,201.586990 257.060089,198.060730 
z"/>
<path fill="#FBFBFB" opacity="1.000000" stroke="none" 
	d="
M455.351044,325.867310 
	C443.163422,325.038422 434.774384,318.906891 428.272797,309.489990 
	C420.242554,297.859100 411.626038,286.613251 404.010162,274.722351 
	C398.079773,265.463074 389.614563,261.959595 379.420319,260.820282 
	C376.340485,260.476074 375.046844,261.823212 375.049072,264.700256 
	C375.058716,277.197815 374.779480,289.707306 375.244324,302.188690 
	C375.548004,310.342651 379.938934,314.715118 387.879333,316.865356 
	C390.395508,317.546753 392.793640,318.664062 395.245789,319.581909 
	C395.106873,320.294006 394.967957,321.006104 394.829041,321.718201 
	C375.931915,321.718201 357.034821,321.718201 338.137695,321.718201 
	C337.990265,321.008362 337.842865,320.298492 337.695435,319.588654 
	C340.287415,318.644958 342.829865,317.520447 345.481445,316.794403 
	C351.415161,315.169586 357.177887,313.425201 358.596252,306.274078 
	C358.884888,304.818848 358.903351,303.293396 358.904175,301.800201 
	C358.920654,271.970337 358.935120,242.140442 358.906403,212.310593 
	C358.895447,200.959366 357.469391,199.324692 346.251495,197.180420 
	C345.117279,196.963608 343.848785,196.848709 342.934021,196.244980 
	C341.919434,195.575424 341.239410,194.398895 340.413727,193.443115 
	C341.442566,192.741089 342.423798,191.947800 343.520355,191.375519 
	C344.068329,191.089539 344.826569,191.155411 345.490417,191.149872 
	C362.641022,191.006790 379.794708,190.651886 396.940613,190.879440 
	C402.006439,190.946671 407.161987,192.275009 412.085724,193.689224 
	C438.486389,201.272293 438.269867,232.842712 424.744141,245.677460 
	C420.096527,250.087631 414.806458,253.820694 409.183380,258.369965 
	C415.565948,267.518463 421.785889,277.152954 428.763763,286.203003 
	C434.130676,293.163727 440.561188,299.294220 446.318970,305.966309 
	C452.877136,313.565826 461.089691,316.911163 471.033722,316.757141 
	C472.851044,316.729004 474.689819,318.087494 476.518677,318.805908 
	C475.031708,320.559387 473.803741,323.441956 472.008972,323.853668 
	C466.727966,325.065063 461.222107,325.296295 455.351044,325.867310 
M375.298676,251.656784 
	C378.052032,257.496338 383.451202,255.910538 387.972198,255.770233 
	C403.517426,255.287735 415.764923,241.895615 415.533020,226.068939 
	C415.229431,205.348618 407.328705,196.797806 388.256195,196.547684 
	C379.362793,196.431061 376.432861,198.942825 376.054260,208.387177 
	C375.488068,222.512115 375.412445,236.656708 375.298676,251.656784 
z"/>
<path fill="#FBFBFB" opacity="1.000000" stroke="none" 
	d="
M65.725327,305.275146 
	C46.659542,285.042755 42.731731,261.503815 50.312424,236.009247 
	C57.444321,212.023972 73.502007,196.476410 98.185616,190.698044 
	C132.252670,182.723053 166.316727,200.206604 177.514633,231.793289 
	C188.386276,262.459595 177.521515,307.260406 137.353851,320.632812 
	C111.290451,329.309692 86.722382,324.944550 65.725327,305.275146 
M81.341606,207.817978 
	C74.186623,214.319672 69.973671,222.499298 67.994247,231.835159 
	C64.311356,249.205383 65.837433,266.251984 71.765396,282.911865 
	C78.693344,302.382111 94.349968,319.520386 123.263535,316.045685 
	C137.397842,314.347046 149.059677,308.320465 155.192780,295.183319 
	C166.961960,269.973724 164.459961,244.671310 151.598434,220.853500 
	C137.872147,195.434235 104.918884,189.616592 81.341606,207.817978 
z"/>
<path fill="#1D1F34" opacity="1.000000" stroke="none" 
	d="
M257.449432,198.162964 
	C267.075165,201.586990 270.887207,208.733765 272.418610,217.945145 
	C274.912750,232.947556 269.441742,246.077530 257.404938,252.517349 
	C251.172211,255.851929 244.431320,256.910126 237.629608,255.271408 
	C235.651825,254.794891 232.775970,251.995132 232.784515,250.272614 
	C232.859543,235.146912 233.140503,220.000900 234.125488,204.910828 
	C234.560745,198.242645 237.399582,196.438904 244.207031,196.622101 
	C248.501190,196.737671 252.776382,197.557053 257.449432,198.162964 
z"/>
<path fill="#1C1E33" opacity="1.000000" stroke="none" 
	d="
M375.213440,251.224854 
	C375.412445,236.656708 375.488068,222.512115 376.054260,208.387177 
	C376.432861,198.942825 379.362793,196.431061 388.256195,196.547684 
	C407.328705,196.797806 415.229431,205.348618 415.533020,226.068939 
	C415.764923,241.895615 403.517426,255.287735 387.972198,255.770233 
	C383.451202,255.910538 378.052032,257.496338 375.213440,251.224854 
z"/>
<path fill="#1B1D32" opacity="1.000000" stroke="none" 
	d="
M81.602242,207.571091 
	C104.918884,189.616592 137.872147,195.434235 151.598434,220.853500 
	C164.459961,244.671310 166.961960,269.973724 155.192780,295.183319 
	C149.059677,308.320465 137.397842,314.347046 123.263535,316.045685 
	C94.349968,319.520386 78.693344,302.382111 71.765396,282.911865 
	C65.837433,266.251984 64.311356,249.205383 67.994247,231.835159 
	C69.973671,222.499298 74.186623,214.319672 81.602242,207.571091 
z"/>
</svg>
