<?xml version="1.0" encoding="utf-8"?>
<!-- Generator: Adobe Illustrator 16.0.0, SVG Export Plug-In . SVG Version: 6.00 Build 0)  -->
<!DOCTYPE svg PUBLIC "-//W3C//DTD SVG 1.1//EN" "http://www.w3.org/Graphics/SVG/1.1/DTD/svg11.dtd">
<svg version="1.1" id="Layer_1" xmlns="http://www.w3.org/2000/svg" xmlns:xlink="http://www.w3.org/1999/xlink" x="0px" y="0px"
	 width="128px" height="128px" viewBox="0 0 128 128" enable-background="new 0 0 128 128" xml:space="preserve">
<g>
	<g>
		<g>
			<g>
				<path fill="rgba(196, 155, 101, 1)" d="M64.002,97.02c-19.88,0-36.053-16.298-36.053-36.332c0-20.031,16.173-36.328,36.053-36.328
					c0,0,0.001,0,0.002,0c9.63,0,18.684,3.781,25.493,10.646c6.807,6.861,10.555,15.982,10.555,25.682
					C100.052,80.722,83.88,97.02,64.002,97.02z M64.004,28.357c-0.001,0-0.001,0-0.002,0c-17.675,0-32.055,14.503-32.055,32.33
					c0,17.829,14.38,32.334,32.055,32.334c17.673,0,32.052-14.505,32.052-32.334c0-8.638-3.336-16.758-9.395-22.866
					C80.606,31.719,72.56,28.357,64.004,28.357z"/>
			</g>
			<g>
				<path fill="rgba(196, 155, 101, 1)" d="M64.002,97.02c-12.168,0-21.699-15.959-21.699-36.332c0-20.371,9.531-36.328,21.699-36.328h0.001
					c6.004,0,11.563,3.928,15.654,11.06c3.891,6.783,6.033,15.757,6.033,25.269C85.69,81.061,76.164,97.02,64.002,97.02z
					 M64.002,28.357c-9.595,0-17.701,14.806-17.701,32.33c0,17.526,8.106,32.334,17.701,32.334c9.589,0,17.69-14.808,17.69-32.334
					c0-8.824-1.954-17.092-5.503-23.279C72.842,31.571,68.514,28.356,64.002,28.357z"/>
			</g>
			<g>
				<path fill="rgba(196, 155, 101, 1)" d="M64.002,97.019h-1.999v-72.66h1.999c19.878,0,36.05,16.297,36.05,36.328
					C100.052,80.721,83.88,97.019,64.002,97.019z M66.001,28.418v64.54c16.747-1.044,30.053-15.119,30.053-32.271
					C96.054,43.536,82.748,29.462,66.001,28.418z"/>
			</g>
			<g>
				<path fill="rgba(196, 155, 101, 1)" d="M97.221,74.787H30.774l-0.486-1.3c-1.552-4.155-2.339-8.462-2.339-12.8
					c0-4.341,0.788-8.648,2.342-12.801l0.485-1.299h66.444l0.486,1.297c1.558,4.152,2.347,8.46,2.347,12.803
					c0,4.341-0.789,8.648-2.347,12.802L97.221,74.787z M33.578,70.789H94.42c1.086-3.299,1.636-6.689,1.636-10.102
					s-0.55-6.805-1.636-10.102H33.579c-1.083,3.298-1.632,6.689-1.632,10.102C31.947,64.098,32.495,67.488,33.578,70.789z"/>
			</g>
		</g>
	</g>
	<g>
		<g>
			<g>
				<path fill="rgba(196, 155, 101, 1)" d="M33.65,24.783C33.65,24.783,33.65,24.783,33.65,24.783c-0.675,0-1.355-0.05-2.022-0.148l-1.434-0.211
					l-0.245-1.428c-0.755-4.396,0.63-8.92,3.705-12.103c2.622-2.713,6.141-4.205,9.907-4.205c0.676,0,1.356,0.05,2.024,0.148
					l1.435,0.211l0.245,1.429c0.754,4.399-0.633,8.923-3.709,12.101C40.938,23.289,37.418,24.783,33.65,24.783z M43.468,10.687
					c-2.638,0.024-5.1,1.082-6.938,2.985c-1.837,1.9-2.828,4.478-2.783,7.113c2.638-0.025,5.098-1.084,6.937-2.987
					C42.521,15.899,43.512,13.322,43.468,10.687z"/>
			</g>
			<g>
				<path fill="rgba(196, 155, 101, 1)" d="M21.06,39.39l-1.254-0.747c-3.722-2.216-6.183-6.117-6.58-10.434c-0.397-4.318,1.305-8.608,4.554-11.475
					l1.094-0.965l1.252,0.746c3.72,2.217,6.178,6.116,6.577,10.432c0.398,4.317-1.303,8.607-4.55,11.476L21.06,39.39z
					 M19.345,20.854c-1.584,1.94-2.371,4.457-2.138,6.988c0.232,2.526,1.465,4.851,3.377,6.463c1.584-1.942,2.37-4.46,2.137-6.99
					C22.487,24.79,21.255,22.466,19.345,20.854z"/>
			</g>
			<g>
				<path fill="rgba(196, 155, 101, 1)" d="M15.506,60.633l-1.444-0.143c-4.308-0.424-8.176-2.915-10.35-6.663
					c-2.171-3.74-2.428-8.351-0.687-12.332l0.583-1.331l1.444,0.143c4.304,0.423,8.173,2.912,10.35,6.658
					c2.171,3.746,2.427,8.357,0.687,12.337L15.506,60.633z M6.184,44.563c-0.628,2.441-0.287,5.063,0.986,7.259
					c1.269,2.188,3.357,3.767,5.761,4.413c0.627-2.441,0.287-5.064-0.986-7.264C10.675,46.786,8.586,45.208,6.184,44.563z"/>
			</g>
			<g>
				<path fill="rgba(196, 155, 101, 1)" d="M13.492,83.52L13.492,83.52c-2.745,0-5.394-0.834-7.656-2.414c-3.537-2.464-5.707-6.534-5.804-10.887
					L0,68.774l1.361-0.484c1.458-0.519,2.979-0.781,4.524-0.781c2.749,0,5.398,0.835,7.661,2.413
					c3.537,2.469,5.704,6.539,5.799,10.889l0.031,1.442l-1.358,0.484C16.56,83.257,15.037,83.52,13.492,83.52z M4.186,71.66
					c0.454,2.485,1.861,4.72,3.937,6.166c2.063,1.439,4.629,1.988,7.071,1.542c-0.452-2.483-1.859-4.719-3.935-6.167
					C9.198,71.764,6.628,71.217,4.186,71.66z"/>
			</g>
			<g>
				<path fill="rgba(196, 155, 101, 1)" d="M21.479,105.125L21.479,105.125c-0.759,0-1.526-0.066-2.28-0.196c-4.246-0.729-7.924-3.499-9.834-7.41
					l-0.631-1.291l1.022-1.009c2.55-2.516,5.903-3.901,9.444-3.901c0.759,0,1.525,0.065,2.278,0.195
					c4.247,0.732,7.923,3.501,9.833,7.405l0.632,1.289l-1.021,1.01C28.379,103.736,25.024,105.125,21.479,105.125z M13.734,97.078
					c1.447,2.059,3.657,3.483,6.143,3.911c2.501,0.427,5.044-0.173,7.068-1.628c-1.449-2.055-3.659-3.48-6.145-3.909
					C18.308,95.024,15.761,95.624,13.734,97.078z"/>
			</g>
			<g>
				<path fill="rgba(196, 155, 101, 1)" d="M37.736,121.312L37.736,121.312c-3.058-0.001-6.063-1.07-8.462-3.013l-1.117-0.904l0.501-1.347
					c1.52-4.08,4.905-7.2,9.06-8.348c4.139-1.143,8.686-0.178,12.03,2.528l1.116,0.904l-0.5,1.346
					c-1.516,4.078-4.904,7.198-9.063,8.347C40.136,121.147,38.937,121.312,37.736,121.312z M33.052,116.055
					c1.426,0.818,3.046,1.258,4.685,1.259l0,0c0.84,0,1.681-0.115,2.5-0.342c2.436-0.673,4.496-2.31,5.735-4.499
					c-2.161-1.238-4.769-1.588-7.189-0.919C36.351,112.226,34.291,113.863,33.052,116.055z"/>
			</g>
			<g>
				<path fill="rgba(196, 155, 101, 1)" d="M56.775,112.768c-26.247-4.616-44.653-28.327-42.814-55.155c0.954-13.938,7.239-26.67,17.697-35.849
					l2.637,3.005c-9.658,8.478-15.464,20.239-16.346,33.117c-1.698,24.782,15.291,46.684,39.518,50.944L56.775,112.768z"/>
			</g>
		</g>
		<g>
			<g>
				<path fill="rgba(196, 155, 101, 1)" d="M94.354,24.783c-3.769,0-7.287-1.494-9.909-4.207c-3.077-3.182-4.462-7.705-3.704-12.101l0.246-1.427
					l1.433-0.211c0.668-0.099,1.348-0.148,2.022-0.148c3.77,0,7.288,1.492,9.908,4.203c3.075,3.184,4.461,7.707,3.704,12.104
					l-0.245,1.428l-1.433,0.211C95.709,24.733,95.029,24.783,94.354,24.783z M84.536,10.688c-0.045,2.634,0.945,5.21,2.783,7.109
					c1.841,1.904,4.301,2.963,6.939,2.988c0.045-2.636-0.946-5.213-2.783-7.114C89.638,11.77,87.177,10.712,84.536,10.688z"/>
			</g>
			<g>
				<path fill="rgba(196, 155, 101, 1)" d="M106.95,39.39l-1.094-0.966c-3.25-2.869-4.952-7.159-4.555-11.476c0.399-4.315,2.859-8.215,6.579-10.433
					l1.253-0.746l1.093,0.965c3.246,2.865,4.95,7.154,4.554,11.474c-0.4,4.317-2.859,8.218-6.577,10.435L106.95,39.39z
					 M108.66,20.854c-1.91,1.613-3.144,3.937-3.377,6.462c-0.233,2.53,0.554,5.047,2.139,6.989c1.911-1.613,3.144-3.938,3.378-6.464
					C111.031,25.311,110.243,22.794,108.66,20.854z"/>
			</g>
			<g>
				<path fill="rgba(196, 155, 101, 1)" d="M112.498,60.633l-0.582-1.332c-1.738-3.982-1.481-8.593,0.687-12.334
					c2.175-3.748,6.044-6.237,10.352-6.66l1.445-0.142l0.582,1.33c1.739,3.982,1.481,8.593-0.689,12.333
					c-2.173,3.747-6.041,6.238-10.348,6.662L112.498,60.633z M121.822,44.563c-2.403,0.646-4.492,2.224-5.762,4.41
					c-1.271,2.195-1.612,4.818-0.984,7.261c2.402-0.646,4.489-2.225,5.758-4.411C122.108,49.626,122.449,47.004,121.822,44.563z"/>
			</g>
			<g>
				<path fill="rgba(196, 155, 101, 1)" d="M114.512,83.52c-1.544,0-3.066-0.264-4.524-0.782l-1.358-0.484l0.03-1.44
					c0.093-4.348,2.261-8.418,5.799-10.89c2.265-1.578,4.913-2.413,7.66-2.413c1.543,0,3.064,0.263,4.521,0.78l1.36,0.483
					l-0.03,1.443c-0.094,4.353-2.263,8.424-5.802,10.89C119.906,82.686,117.259,83.52,114.512,83.52z M112.812,79.368
					c2.441,0.446,5.008-0.103,7.069-1.541c2.077-1.447,3.484-3.682,3.937-6.166c-2.442-0.443-5.01,0.104-7.071,1.54
					C114.671,74.651,113.264,76.887,112.812,79.368z"/>
			</g>
			<g>
				<path fill="rgba(196, 155, 101, 1)" d="M106.522,105.125c-3.541,0-6.896-1.388-9.441-3.907l-1.021-1.011l0.631-1.289
					c1.911-3.905,5.588-6.674,9.836-7.404c0.752-0.13,1.518-0.195,2.275-0.195c3.543,0,6.897,1.387,9.447,3.902l1.024,1.011
					l-0.634,1.291c-1.916,3.91-5.593,6.679-9.836,7.407C108.051,105.06,107.282,105.125,106.522,105.125z M101.06,99.361
					c2.025,1.457,4.567,2.06,7.066,1.628c2.483-0.427,4.693-1.852,6.145-3.91c-2.025-1.452-4.568-2.053-7.066-1.626
					C104.718,95.882,102.508,97.306,101.06,99.361z"/>
			</g>
			<g>
				<path fill="rgba(196, 155, 101, 1)" d="M90.27,121.312c-1.2,0-2.4-0.164-3.567-0.486c-4.157-1.146-7.545-4.266-9.062-8.347l-0.5-1.345
					l1.115-0.904c3.34-2.707,7.887-3.673,12.032-2.529c4.158,1.149,7.543,4.27,9.057,8.35l0.5,1.346l-1.115,0.903
					C96.33,120.241,93.325,121.312,90.27,121.312z M82.033,112.472c1.238,2.191,3.298,3.829,5.731,4.5
					c2.424,0.668,5.03,0.321,7.188-0.917c-1.238-2.191-3.297-3.828-5.729-4.501C86.8,110.885,84.188,111.234,82.033,112.472z"/>
			</g>
			<g>
				<path fill="rgba(196, 155, 101, 1)" d="M71.23,112.77l-0.692-3.938c24.229-4.263,41.217-26.165,39.518-50.946
					c-0.882-12.878-6.688-24.639-16.346-33.117l2.638-3.005c10.457,9.18,16.742,21.911,17.696,35.849
					C115.884,84.439,97.479,108.151,71.23,112.77z"/>
			</g>
		</g>
	</g>
</g>
</svg>
